<?xml version="1.0" standalone="no"?>
<!DOCTYPE svg PUBLIC "-//W3C//DTD SVG 20010904//EN"
 "http://www.w3.org/TR/2001/REC-SVG-20010904/DTD/svg10.dtd">
<svg version="1.0" xmlns="http://www.w3.org/2000/svg"
 width="640.000000pt" height="640.000000pt" viewBox="0 0 640.000000 640.000000"
 preserveAspectRatio="xMidYMid meet">

<g transform="translate(0.000000,640.000000) scale(0.100000,-0.100000)"
fill="#000000" stroke="none">
<path d="M2840 6375 c-564 -68 -1079 -273 -1536 -611 -106 -78 -346 -284 -389
-335 -12 -13 -59 -67 -106 -119 -440 -495 -716 -1120 -788 -1792 -16 -145 -14
-531 4 -683 61 -527 249 -1023 552 -1461 311 -447 745 -820 1228 -1054 344
-166 671 -262 1040 -305 151 -17 522 -20 676 -5 1347 134 2478 1120 2796 2440
60 249 74 373 80 680 4 218 2 305 -12 420 -54 471 -209 921 -453 1315 -523
844 -1390 1397 -2367 1510 -159 18 -574 18 -725 0z m512 -1310 c115 -29 232
-99 337 -205 176 -176 313 -464 381 -800 34 -166 60 -415 60 -566 0 -99 -1
-104 -25 -120 -33 -21 -73 -11 -85 22 -6 14 -10 67 -10 117 0 275 -58 610
-145 837 -105 276 -257 467 -444 560 -304 151 -625 -12 -832 -422 -122 -242
-190 -554 -206 -945 -6 -140 -8 -155 -27 -169 -28 -19 -52 -18 -76 6 -25 25
-26 103 -5 344 44 497 187 884 414 1119 198 207 421 281 663 222z m-1086 -992
c-7 -24 -23 -121 -36 -213 -15 -109 -31 -417 -24 -457 13 -71 93 -116 157 -89
67 28 71 40 79 230 7 170 27 363 52 481 l12 60 690 3 691 2 16 -87 c25 -127
46 -338 49 -488 3 -117 6 -134 26 -163 44 -60 134 -62 187 -3 26 30 30 112 16
311 -9 136 -19 218 -47 388 l-7 42 209 0 c115 0 219 -3 231 -6 16 -4 26 -18
33 -43 5 -20 28 -263 50 -541 45 -552 93 -1151 141 -1723 35 -422 35 -446 -1
-464 -20 -10 -352 -13 -1590 -13 -1772 0 -1610 -8 -1610 83 1 29 49 640 108
1359 97 1170 110 1309 126 1327 18 20 30 21 233 21 199 0 214 -1 209 -17z"/>
</g>
</svg>
